<?xml version="1.0" standalone="no"?>
<!DOCTYPE svg PUBLIC "-//W3C//DTD SVG 20010904//EN"
 "http://www.w3.org/TR/2001/REC-SVG-20010904/DTD/svg10.dtd">
<svg version="1.0" xmlns="http://www.w3.org/2000/svg"
 width="700.000000pt" height="700.000000pt" viewBox="0 0 700.000000 700.000000"
 preserveAspectRatio="xMidYMid meet">

<g transform="translate(0.000000,700.000000) scale(0.100000,-0.100000)"
fill="#000000" stroke="none">
<path d="M4123 6138 c-578 -21 -1116 -106 -1548 -245 -209 -67 -471 -179 -605
-259 -25 -14 -87 -51 -138 -80 -155 -90 -316 -218 -482 -384 -301 -300 -487
-599 -647 -1039 -41 -114 -63 -194 -103 -370 -30 -133 -31 -134 -11 -152 19
-18 20 -18 23 1 3 17 11 13 61 -30 32 -28 65 -50 74 -50 8 0 50 -33 94 -72 44
-40 94 -79 112 -86 18 -8 46 -27 63 -43 l31 -30 7 288 c5 241 28 588 38 598 2
2 58 -50 125 -114 118 -112 143 -127 143 -83 0 11 3 12 13 3 8 -6 17 -8 20 -5
3 4 14 3 24 -1 10 -4 26 -9 35 -10 19 -2 19 -1 38 130 37 245 125 665 143 677
5 3 19 -3 30 -13 12 -10 33 -19 48 -19 15 0 31 -4 34 -10 12 -19 22 -10 29 23
16 84 68 298 72 294 2 -2 -18 -105 -45 -228 -76 -340 -155 -839 -185 -1164
-26 -281 -30 -355 -17 -355 7 0 9 5 6 10 -8 12 8 13 21 1 17 -17 54 6 54 35 0
22 4 25 21 21 13 -4 26 1 37 14 17 20 58 26 64 10 5 -14 58 -1 58 14 0 27 71
262 102 335 115 279 286 493 523 650 111 74 281 163 332 175 59 13 64 23 94
202 16 92 36 204 46 248 l19 80 52 3 c51 3 52 3 62 45 6 23 30 110 53 192 l42
150 85 3 c82 3 317 -12 373 -24 25 -6 29 -2 53 51 25 55 28 57 58 51 71 -15
387 -58 391 -54 1 2 26 77 54 168 44 140 90 270 95 270 0 0 25 -7 55 -15 30
-8 57 -12 61 -10 3 2 17 26 30 54 18 38 29 51 45 51 16 0 25 9 34 38 7 20 15
42 17 49 7 16 -155 20 -413 11z"/>
<path d="M5975 2509 c-189 -65 -634 -208 -765 -246 -114 -33 -188 -54 -360
-101 -80 -22 -206 -63 -280 -92 -197 -76 -565 -193 -735 -233 -148 -35 -429
-83 -595 -102 -153 -17 -438 -19 -550 -4 -41 5 -98 7 -127 3 -56 -7 -62 -15
-69 -92 -3 -32 -1 -35 59 -62 87 -41 218 -76 349 -96 91 -13 158 -15 348 -11
129 3 247 9 261 12 21 6 27 3 32 -14 3 -12 0 -21 -6 -21 -6 0 4 -16 23 -35 18
-19 32 -36 29 -38 -2 -2 -15 -7 -27 -13 -23 -9 -22 -11 36 -61 l59 -52 109 34
c60 18 199 63 308 99 222 74 193 73 321 16 33 -15 71 -31 84 -35 34 -11 13
-25 -101 -70 -54 -21 -95 -41 -93 -45 3 -4 21 -11 40 -14 19 -4 58 -18 86 -33
28 -14 70 -27 93 -30 22 -3 59 -12 82 -20 37 -13 45 -13 105 7 35 12 143 62
239 112 542 279 941 688 1184 1212 21 43 36 79 34 81 -2 1 -79 -24 -173 -56z"/>
</g>
</svg>
